<?xml version="1.0" encoding="UTF-8"?>
<svg version="1.1" xmlns="http://www.w3.org/2000/svg" width="500" height="500">
<path d="M0 0 C5.17957181 3.56011912 7.35659431 6.90958862 9.625 12.6875 C10.06211304 13.74553833 10.06211304 13.74553833 10.50805664 14.82495117 C11.08613445 16.23023119 11.65706848 17.6384748 12.22021484 19.04980469 C12.90497594 20.7623506 13.61640327 22.46418372 14.33203125 24.1640625 C17 30.55587456 17 30.55587456 17 34 C17.60499832 33.85870667 18.20999664 33.71741333 18.83332825 33.57183838 C24.99176375 32.22404747 30.78135922 31.70488083 37.07421875 31.734375 C38.46457085 31.73150482 38.46457085 31.73150482 39.88301086 31.72857666 C41.83175938 31.72722509 43.78051721 31.73084905 45.72924805 31.73925781 C48.66281111 31.74991035 51.59575327 31.73935876 54.52929688 31.7265625 C65.19345412 31.71979483 75.47721906 32.19321372 86 34 C86.17015625 33.39921631 86.3403125 32.79843262 86.515625 32.17944336 C88.36024805 25.83180601 90.54417358 19.69744984 93 13.5625 C93.34289062 12.67884766 93.68578125 11.79519531 94.0390625 10.88476562 C94.37679687 10.03720703 94.71453125 9.18964844 95.0625 8.31640625 C95.36285156 7.55787354 95.66320312 6.79934082 95.97265625 6.01782227 C97.42816134 3.15904148 98.96790509 1.42485835 101.9453125 0.19921875 C107.67781836 -1.1465846 112.4812574 -1.27179307 118 1 C121.59160329 3.82743238 124.07399125 6.47284609 125 11 C124.15596191 17.66979185 121.65301526 23.65830745 118.9375 29.75 C115.77223911 36.65376678 115.77223911 36.65376678 114 44 C114.7321875 44.09796875 115.464375 44.1959375 116.21875 44.296875 C122.86650373 45.9774869 128.41269611 52.1428547 133 57 C133.598125 57.556875 134.19625 58.11375 134.8125 58.6875 C136 60 136 60 136 62 C136.66 62 137.32 62 138 62 C144.88995634 70.58718899 149.4771704 83.06718401 149 94 C149.91495239 93.9685791 149.91495239 93.9685791 150.84838867 93.93652344 C153.62792294 93.85307139 156.4071932 93.80124989 159.1875 93.75 C160.14720703 93.71648437 161.10691406 93.68296875 162.09570312 93.6484375 C166.42844777 93.58846872 169.21334739 93.56084438 173.05078125 95.703125 C176.48402714 99.74871334 177.24989052 103.46313423 177.29052734 108.68896484 C177.30328705 109.80717621 177.31604675 110.92538757 177.32919312 112.07748413 C177.33141876 113.27652374 177.33364441 114.47556335 177.3359375 115.7109375 C177.3459227 117.57318466 177.3459227 117.57318466 177.35610962 119.47305298 C177.36622751 122.09725464 177.37092691 124.72148198 177.37060547 127.34570312 C177.37044275 130.02859403 177.3843552 132.71080347 177.41162109 135.39355469 C177.44830291 139.27039395 177.45808 143.14644191 177.4609375 147.0234375 C177.47530853 148.21842865 177.48967957 149.4134198 177.50448608 150.6446228 C177.46804958 157.30343914 177.10613483 161.64744288 173 167 C167.83541525 170.4430565 162.73943138 170.13280841 156.6875 170.0625 C155.94693359 170.05798828 155.20636719 170.05347656 154.44335938 170.04882812 C152.62887101 170.03712175 150.81442466 170.01918898 149 170 C149.03480469 171.2065625 149.06960938 172.413125 149.10546875 173.65625 C149.09643222 181.86864818 145.29482711 190.71464401 140 197 C139.34 197 138.68 197 138 197 C138 197.66 138 198.32 138 199 C137.34 199 136.68 199 136 199 C136 199.66 136 200.32 136 201 C135.34 201 134.68 201 134 201 C134 201.66 134 202.32 134 203 C124.8381552 209.86660184 114.530687 213.14771228 103.16796875 213.09765625 C101.87568359 213.09443359 100.58339844 213.09121094 99.25195312 213.08789062 C97.89713474 213.07953665 96.54231703 213.07107172 95.1875 213.0625 C93.81315265 213.05748 92.43880355 213.05291797 91.06445312 213.04882812 C87.70961659 213.03705677 84.3548027 213.01912174 81 213 C81 217.95 81 222.9 81 228 C82.505625 227.938125 84.01125 227.87625 85.5625 227.8125 C100.68887297 227.87082792 114.92630102 232.15482069 125.97265625 242.76171875 C131.73270199 249.12107561 135.29401971 255.96803367 137.9375 264.0625 C138.14922852 264.69865234 138.36095703 265.33480469 138.57910156 265.99023438 C139.72125662 269.81557822 140.09762364 273.25751085 140.05297852 277.25561523 C140.04532974 278.14683578 140.03768097 279.03805634 140.02980042 279.95628357 C140.01504921 280.9679232 140.01504921 280.9679232 140 282 C117.34776114 282.02333282 94.69552426 282.04098106 72.04327583 282.05181217 C61.52607955 282.05697431 51.00889072 282.06401546 40.49169922 282.07543945 C31.32776983 282.08538878 22.16384583 282.09185403 12.99991119 282.09408849 C8.14511756 282.09539517 3.29033938 282.09847836 -1.56444931 282.10573006 C-6.12961648 282.11249419 -10.69476177 282.11461615 -15.25993347 282.11310768 C-16.93937931 282.11338383 -18.61882585 282.11538663 -20.29826736 282.11920547 C-22.58346489 282.12414884 -24.86857879 282.12299588 -27.15377808 282.12025452 C-28.43507032 282.12117631 -29.71636257 282.1220981 -31.03648186 282.12304783 C-34 282 -34 282 -36 281 C-37.31182603 268.87289715 -32.66401501 256.78290534 -26.33203125 246.625 C-25.89246094 246.08875 -25.45289063 245.5525 -25 245 C-24.34 245 -23.68 245 -23 245 C-23 244.34 -23 243.68 -23 243 C-22.34 243 -21.68 243 -21 243 C-21 242.34 -21 241.68 -21 241 C-20.34 241 -19.68 241 -19 241 C-19 240.34 -19 239.68 -19 239 C-6.08886851 229.79360899 6.49265809 227.8257602 22 228 C22 223.05 22 218.1 22 213 C20.04578125 213.03480469 18.0915625 213.06960938 16.078125 213.10546875 C14.14177609 213.1263646 12.20542414 213.1471401 10.26904297 213.16479492 C8.30030432 213.1869343 6.33176638 213.22509352 4.36328125 213.26367188 C-5.76204968 213.3407683 -15.84138995 212.66650805 -24.5625 207 C-25.34753906 206.505 -26.13257813 206.01 -26.94140625 205.5 C-28.84699801 204.11148532 -30.47285408 202.79549424 -32 201 C-32 200.34 -32 199.68 -32 199 C-32.66 199 -33.32 199 -34 199 C-34 198.34 -34 197.68 -34 197 C-34.66 197 -35.32 197 -36 197 C-42.13912996 188.65488741 -45.31173994 180.25270153 -46 170 C-47.01320312 170.02320313 -48.02640625 170.04640625 -49.0703125 170.0703125 C-50.42186758 170.0890841 -51.77343069 170.1072828 -53.125 170.125 C-53.79015625 170.14175781 -54.4553125 170.15851563 -55.140625 170.17578125 C-60.60477857 170.22935138 -65.00519739 169.61740752 -69.3125 166.125 C-72.17997783 162.514102 -72.12924905 159.02172517 -72.16113281 154.51635742 C-72.17074036 153.41809128 -72.1803479 152.31982513 -72.19024658 151.1882782 C-72.19449646 150.00595108 -72.19874634 148.82362396 -72.203125 147.60546875 C-72.20882507 146.38475174 -72.21452515 145.16403473 -72.22039795 143.90632629 C-72.22984352 141.32322048 -72.23638017 138.74010263 -72.24023438 136.15698242 C-72.24993686 132.21316418 -72.28096423 128.26986776 -72.3125 124.32617188 C-72.3190306 121.81510726 -72.32428085 119.30403892 -72.328125 116.79296875 C-72.3404718 115.61671432 -72.3528186 114.4404599 -72.36553955 113.2285614 C-72.34652186 106.20902346 -72.07638963 100.69319052 -67.421875 95.10546875 C-63.50277713 93.31659021 -59.51014239 93.42262185 -55.25 93.3125 C-54.36183594 93.27833984 -53.47367188 93.24417969 -52.55859375 93.20898438 C-50.37252197 93.12671286 -48.18684049 93.05749828 -46 93 C-45.75765625 91.9378125 -45.5153125 90.875625 -45.265625 89.78125 C-43.53184829 82.38997811 -41.90384318 75.58773537 -38 69 C-37.443125 68.05125 -36.88625 67.1025 -36.3125 66.125 C-26.90873533 53.41720991 -26.90873533 53.41720991 -21 51 C-21 50.34 -21 49.68 -21 49 C-18.8125 47.4921875 -18.8125 47.4921875 -16 45.875 C-15.071875 45.33617187 -14.14375 44.79734375 -13.1875 44.2421875 C-12.465625 43.83226562 -11.74375 43.42234375 -11 43 C-11.59911562 39.44593097 -12.55333762 36.46567654 -14.06640625 33.19921875 C-14.46923828 32.30396484 -14.87207031 31.40871094 -15.28710938 30.48632812 C-16.13362677 28.62865673 -16.98774032 26.77442707 -17.84960938 24.92382812 C-20.36385638 19.29401341 -21.62561989 15.17369961 -21 9 C-18.83983247 4.13962306 -16.01298253 1.91499206 -11.25 -0.25 C-7.29390843 -1.16294421 -3.85104095 -1.40874476 0 0 Z " fill="#F6F6F5" transform="translate(198,109)"/>
<path d="M0 0 C0 0.33 0 0.66 0 1 C-3.3 1.33 -6.6 1.66 -10 2 C-9.72325439 2.65895264 -9.44650879 3.31790527 -9.16137695 3.99682617 C-6.08773589 11.32303035 -3.03325143 18.65697851 0 26 C0.47735596 27.15435547 0.47735596 27.15435547 0.96435547 28.33203125 C1.69536415 30.11279473 2.41115611 31.89978661 3.125 33.6875 C3.49882812 34.61949219 3.87265625 35.55148438 4.2578125 36.51171875 C5.03988893 39.1337329 5.14705838 41.27941991 5 44 C4.18015625 44.38671875 3.3603125 44.7734375 2.515625 45.171875 C1.43796875 45.69265625 0.3603125 46.2134375 -0.75 46.75 C-1.81734375 47.26046875 -2.8846875 47.7709375 -3.984375 48.296875 C-6.8735255 49.9285714 -8.71760386 51.63535535 -11 54 C-11.66 54 -12.32 54 -13 54 C-13.2475 54.556875 -13.495 55.11375 -13.75 55.6875 C-15 58 -15 58 -16.85546875 60.234375 C-19.17054702 63.21994042 -20.85049746 66.19594467 -22.5625 69.5625 C-23.14128906 70.67753906 -23.72007812 71.79257813 -24.31640625 72.94140625 C-29.28158165 84.12637713 -29.46127525 95.29596569 -29.43359375 107.28515625 C-29.43816634 109.03527527 -29.44347507 110.7853925 -29.44947815 112.5355072 C-29.45835971 116.18398384 -29.45604177 119.83224098 -29.44604492 123.48071289 C-29.43454082 128.12948994 -29.45481403 132.77750895 -29.48396206 137.42618656 C-29.50240307 141.03385635 -29.5020163 144.6413469 -29.49632454 148.24905205 C-29.4961724 149.96207177 -29.50212669 151.67510449 -29.51461601 153.38807869 C-29.60215415 167.35458048 -28.02862133 178.44123129 -18 189 C-10.6576775 195.17422574 -1.99482669 197.2101244 7.40600586 197.60058594 C8.22867667 197.63888897 9.05134748 197.677192 9.89894772 197.71665573 C20.53347007 198.16773555 31.17407191 198.18430759 41.81640625 198.203125 C43.45952947 198.20736607 43.45952947 198.20736607 45.13584709 198.21169281 C50.91161197 198.22653387 56.68735276 198.23586322 62.46313477 198.24023438 C68.39741247 198.24575644 74.33146509 198.26990558 80.26567173 198.29820633 C84.86661941 198.31686109 89.4675125 198.32203941 94.0684948 198.32357025 C96.25682773 198.32658115 98.44516007 198.33455631 100.63345528 198.34775543 C103.69013889 198.36490699 106.74626565 198.36291563 109.80297852 198.35644531 C111.13493759 198.37026749 111.13493759 198.37026749 112.49380493 198.3843689 C123.3260351 198.31293724 131.85997493 194.81245208 140.3125 188.1875 C142 187 142 187 145 187 C143.66749209 190.5875213 142.169283 193.8364623 140 197 C139.34 197 138.68 197 138 197 C138 197.66 138 198.32 138 199 C137.34 199 136.68 199 136 199 C136 199.66 136 200.32 136 201 C135.34 201 134.68 201 134 201 C134 201.66 134 202.32 134 203 C124.8381552 209.86660184 114.530687 213.14771228 103.16796875 213.09765625 C101.87568359 213.09443359 100.58339844 213.09121094 99.25195312 213.08789062 C97.89713474 213.07953665 96.54231703 213.07107172 95.1875 213.0625 C93.81315265 213.05748 92.43880355 213.05291797 91.06445312 213.04882812 C87.70961659 213.03705677 84.3548027 213.01912174 81 213 C81 217.95 81 222.9 81 228 C82.505625 227.938125 84.01125 227.87625 85.5625 227.8125 C100.68887297 227.87082792 114.92630102 232.15482069 125.97265625 242.76171875 C131.73270199 249.12107561 135.29401971 255.96803367 137.9375 264.0625 C138.14922852 264.69865234 138.36095703 265.33480469 138.57910156 265.99023438 C139.72125662 269.81557822 140.09762364 273.25751085 140.05297852 277.25561523 C140.04532974 278.14683578 140.03768097 279.03805634 140.02980042 279.95628357 C140.01504921 280.9679232 140.01504921 280.9679232 140 282 C117.34776114 282.02333282 94.69552426 282.04098106 72.04327583 282.05181217 C61.52607955 282.05697431 51.00889072 282.06401546 40.49169922 282.07543945 C31.32776983 282.08538878 22.16384583 282.09185403 12.99991119 282.09408849 C8.14511756 282.09539517 3.29033938 282.09847836 -1.56444931 282.10573006 C-6.12961648 282.11249419 -10.69476177 282.11461615 -15.25993347 282.11310768 C-16.93937931 282.11338383 -18.61882585 282.11538663 -20.29826736 282.11920547 C-22.58346489 282.12414884 -24.86857879 282.12299588 -27.15377808 282.12025452 C-28.43507032 282.12117631 -29.71636257 282.1220981 -31.03648186 282.12304783 C-34 282 -34 282 -36 281 C-37.31182603 268.87289715 -32.66401501 256.78290534 -26.33203125 246.625 C-25.89246094 246.08875 -25.45289063 245.5525 -25 245 C-24.34 245 -23.68 245 -23 245 C-23 244.34 -23 243.68 -23 243 C-22.34 243 -21.68 243 -21 243 C-21 242.34 -21 241.68 -21 241 C-20.34 241 -19.68 241 -19 241 C-19 240.34 -19 239.68 -19 239 C-6.08886851 229.79360899 6.49265809 227.8257602 22 228 C22 223.05 22 218.1 22 213 C20.04578125 213.03480469 18.0915625 213.06960938 16.078125 213.10546875 C14.14177609 213.1263646 12.20542414 213.1471401 10.26904297 213.16479492 C8.30030432 213.1869343 6.33176638 213.22509352 4.36328125 213.26367188 C-5.76204968 213.3407683 -15.84138995 212.66650805 -24.5625 207 C-25.34753906 206.505 -26.13257813 206.01 -26.94140625 205.5 C-28.84699801 204.11148532 -30.47285408 202.79549424 -32 201 C-32 200.34 -32 199.68 -32 199 C-32.66 199 -33.32 199 -34 199 C-34 198.34 -34 197.68 -34 197 C-34.66 197 -35.32 197 -36 197 C-42.13912996 188.65488741 -45.31173994 180.25270153 -46 170 C-47.01320312 170.02320313 -48.02640625 170.04640625 -49.0703125 170.0703125 C-50.42186758 170.0890841 -51.77343069 170.1072828 -53.125 170.125 C-53.79015625 170.14175781 -54.4553125 170.15851563 -55.140625 170.17578125 C-60.60477857 170.22935138 -65.00519739 169.61740752 -69.3125 166.125 C-72.17997783 162.514102 -72.12924905 159.02172517 -72.16113281 154.51635742 C-72.17074036 153.41809128 -72.1803479 152.31982513 -72.19024658 151.1882782 C-72.19449646 150.00595108 -72.19874634 148.82362396 -72.203125 147.60546875 C-72.20882507 146.38475174 -72.21452515 145.16403473 -72.22039795 143.90632629 C-72.22984352 141.32322048 -72.23638017 138.74010263 -72.24023438 136.15698242 C-72.24993686 132.21316418 -72.28096423 128.26986776 -72.3125 124.32617188 C-72.3190306 121.81510726 -72.32428085 119.30403892 -72.328125 116.79296875 C-72.3404718 115.61671432 -72.3528186 114.4404599 -72.36553955 113.2285614 C-72.34652186 106.20902346 -72.07638963 100.69319052 -67.421875 95.10546875 C-63.50277713 93.31659021 -59.51014239 93.42262185 -55.25 93.3125 C-54.36183594 93.27833984 -53.47367188 93.24417969 -52.55859375 93.20898438 C-50.37252197 93.12671286 -48.18684049 93.05749828 -46 93 C-45.75765625 91.9378125 -45.5153125 90.875625 -45.265625 89.78125 C-43.53184829 82.38997811 -41.90384318 75.58773537 -38 69 C-37.443125 68.05125 -36.88625 67.1025 -36.3125 66.125 C-26.90873533 53.41720991 -26.90873533 53.41720991 -21 51 C-21 50.34 -21 49.68 -21 49 C-18.8125 47.4921875 -18.8125 47.4921875 -16 45.875 C-15.071875 45.33617187 -14.14375 44.79734375 -13.1875 44.2421875 C-12.465625 43.83226562 -11.74375 43.42234375 -11 43 C-11.59911562 39.44593097 -12.55333762 36.46567654 -14.06640625 33.19921875 C-14.46923828 32.30396484 -14.87207031 31.40871094 -15.28710938 30.48632812 C-16.13362677 28.62865673 -16.98774032 26.77442707 -17.84960938 24.92382812 C-20.36385638 19.29401341 -21.62561989 15.17369961 -21 9 C-18.83983247 4.13962306 -16.01298253 1.91499206 -11.25 -0.25 C-7.11243313 -1.20482312 -4.16979959 -0.71893096 0 0 Z " fill="#D9D9D9" transform="translate(198,109)"/>
<path d="M0 0 C1.11181641 0.00644531 2.22363281 0.01289063 3.36914062 0.01953125 C5.09487305 0.04466797 5.09487305 0.04466797 6.85546875 0.0703125 C8.02529297 0.07933594 9.19511719 0.08835937 10.40039062 0.09765625 C13.28145928 0.12117518 16.16210864 0.15404398 19.04296875 0.1953125 C19.10137939 0.80294434 19.15979004 1.41057617 19.2199707 2.03662109 C19.30206787 2.83922363 19.38416504 3.64182617 19.46875 4.46875 C19.54778564 5.26200684 19.62682129 6.05526367 19.70825195 6.87255859 C20.64837392 13.39649761 24.02329162 19.01886176 29.04296875 23.1953125 C37.77525737 28.40059566 46.93533472 29.97222101 56.83984375 27.49609375 C63.91016553 24.95720547 69.68406008 21.11571066 73.35546875 14.4453125 C74.73071862 11.31169035 75.51370244 8.28907129 76.1484375 4.9296875 C76.40403442 3.59502441 76.40403442 3.59502441 76.66479492 2.23339844 C76.78959229 1.56083008 76.91438965 0.88826172 77.04296875 0.1953125 C93.73728058 -0.49427206 106.46249583 -0.44305019 119.72265625 10.8984375 C126.50021993 17.60754094 131.15807862 25.13068404 134.04296875 34.1953125 C134.37941406 35.21044922 134.37941406 35.21044922 134.72265625 36.24609375 C135.83068235 40.03311446 136.12878776 43.49898573 136.08984375 47.4453125 C136.08307617 48.33734375 136.07630859 49.229375 136.06933594 50.1484375 C136.05628418 51.16164063 136.05628418 51.16164063 136.04296875 52.1953125 C113.39072989 52.21864532 90.73849301 52.23629356 68.08624458 52.24712467 C57.5690483 52.25228681 47.05185947 52.25932796 36.53466797 52.27075195 C27.37073858 52.28070128 18.20681458 52.28716653 9.04287994 52.28940099 C4.18808631 52.29070767 -0.66669187 52.29379086 -5.52148056 52.30104256 C-10.08664773 52.30780669 -14.65179302 52.30992865 -19.21696472 52.30842018 C-20.89641056 52.30869633 -22.5758571 52.31069913 -24.25529861 52.31451797 C-26.54049614 52.31946134 -28.82561004 52.31830838 -31.11080933 52.31556702 C-32.39210157 52.31648881 -33.67339382 52.3174106 -34.99351311 52.31836033 C-37.95703125 52.1953125 -37.95703125 52.1953125 -39.95703125 51.1953125 C-41.26885728 39.06820965 -36.62104626 26.97821784 -30.2890625 16.8203125 C-29.84949219 16.2840625 -29.40992188 15.7478125 -28.95703125 15.1953125 C-28.29703125 15.1953125 -27.63703125 15.1953125 -26.95703125 15.1953125 C-26.95703125 14.5353125 -26.95703125 13.8753125 -26.95703125 13.1953125 C-26.29703125 13.1953125 -25.63703125 13.1953125 -24.95703125 13.1953125 C-24.95703125 12.5353125 -24.95703125 11.8753125 -24.95703125 11.1953125 C-24.29703125 11.1953125 -23.63703125 11.1953125 -22.95703125 11.1953125 C-22.95703125 10.5353125 -22.95703125 9.8753125 -22.95703125 9.1953125 C-20.5078125 7.5390625 -20.5078125 7.5390625 -17.26953125 5.6953125 C-16.21378906 5.086875 -15.15804687 4.4784375 -14.0703125 3.8515625 C-9.16441132 1.2416477 -5.6023846 -0.05746035 0 0 Z " fill="#EFEFEF" transform="translate(201.95703125,338.8046875)"/>
<path d="M0 0 C0.02578125 1.08796875 0.0515625 2.1759375 0.078125 3.296875 C0.55444098 17.25181815 2.88622709 29.51588891 12.8828125 39.96875 C17.21701069 43.98000793 21.61970894 46.59808435 27 49 C27 49.33 27 49.66 27 50 C25.80396652 49.99666908 25.80396652 49.99666908 24.58377075 49.99327087 C17.07916042 49.97325582 9.57456297 49.95801965 2.06993294 49.94818783 C-1.7885133 49.94296333 -5.64693753 49.93587351 -9.50537109 49.92456055 C-13.2271153 49.91371632 -16.9488383 49.90771989 -20.67059708 49.90512276 C-22.09240172 49.90327129 -23.51420517 49.89965597 -24.93600082 49.89426994 C-26.9233055 49.88703928 -28.91063139 49.88659177 -30.89794922 49.88647461 C-32.03046112 49.884254 -33.16297302 49.88203339 -34.32980347 49.87974548 C-36.97384777 49.81754044 -36.97384777 49.81754044 -39 51 C-40.31182603 38.87289715 -35.66401501 26.78290534 -29.33203125 16.625 C-28.89246094 16.08875 -28.45289063 15.5525 -28 15 C-27.34 15 -26.68 15 -26 15 C-26 14.34 -26 13.68 -26 13 C-25.34 13 -24.68 13 -24 13 C-24 12.34 -24 11.68 -24 11 C-23.34 11 -22.68 11 -22 11 C-22 10.34 -22 9.68 -22 9 C-19.55078125 7.34375 -19.55078125 7.34375 -16.3125 5.5 C-15.25675781 4.8915625 -14.20101562 4.283125 -13.11328125 3.65625 C-8.53910141 1.22280928 -5.23936998 -0.29939257 0 0 Z " fill="#D9D9D9" transform="translate(201,339)"/>
<path d="M0 0 C3.1875 0.75 3.1875 0.75 5.125 3.125 C6.1875 5.75 6.1875 5.75 6.1875 7.75 C6.8475 7.75 7.5075 7.75 8.1875 7.75 C11.21240707 10.62626299 11.62538244 13.34263893 11.75708008 17.43554688 C11.75474365 18.13744141 11.75240723 18.83933594 11.75 19.5625 C11.74830811 20.28373047 11.74661621 21.00496094 11.74487305 21.74804688 C11.60531513 25.85170308 11.28785745 28.66754937 8.5 31.75 C7.95730469 32.23597656 7.41460937 32.72195312 6.85546875 33.22265625 C3.94777643 35.88520355 2.16926798 39.37397933 0.1875 42.75 C-3.19560867 42.68233783 -5.83585939 42.56461728 -8.5078125 40.3359375 C-10.07809786 38.54470746 -11.46150556 36.7109889 -12.8125 34.75 C-13.43125 33.88375 -14.05 33.0175 -14.6875 32.125 C-16.87169554 25.57241339 -17.13376766 17.7949513 -14.3125 11.375 C-10.92523261 5.74950292 -6.52364677 1.28334035 0 0 Z " fill="#C2F1DC" transform="translate(203.8125,211.25)"/>
<path d="M0 0 C0.556875 1.0828125 0.556875 1.0828125 1.125 2.1875 C3.38785527 5.5817829 5.7783338 6.97061077 9.2578125 8.984375 C11 10 11 10 12 11 C13.39393176 24.5908347 13.39393176 24.5908347 10.6484375 29.3359375 C8.875 31 8.875 31 6.95703125 32.47265625 C4.7063465 34.22917868 3.23661478 36.13209612 1.5625 38.4375 C1.06878906 39.11683594 0.57507813 39.79617187 0.06640625 40.49609375 C-0.28550781 40.99238281 -0.63742187 41.48867187 -1 42 C-3.16874252 41.49396008 -4.99967627 41.00016187 -7 40 C-7 39.34 -7 38.68 -7 38 C-7.66 38 -8.32 38 -9 38 C-9 37.34 -9 36.68 -9 36 C-9.99 35.67 -10.98 35.34 -12 35 C-15.12762777 29.63386941 -17.35581625 23.19641642 -16 17 C-14.54788798 13.21646938 -12.85393935 9.60193931 -11 6 C-10.34 6 -9.68 6 -9 6 C-8.67 5.01 -8.34 4.02 -8 3 C-2.77777778 0 -2.77777778 0 0 0 Z " fill="#C2F2DB" transform="translate(289,212)"/>
<path d="M0 0 C0 0.33 0 0.66 0 1 C-3.3 1.33 -6.6 1.66 -10 2 C-9.72325439 2.65895264 -9.44650879 3.31790527 -9.16137695 3.99682617 C-6.08773589 11.32303035 -3.03325143 18.65697851 0 26 C0.47735596 27.15435547 0.47735596 27.15435547 0.96435547 28.33203125 C1.69536415 30.11279473 2.41115611 31.89978661 3.125 33.6875 C3.68574219 35.08548828 3.68574219 35.08548828 4.2578125 36.51171875 C5.03988893 39.1337329 5.14705838 41.27941991 5 44 C4.18015625 44.38671875 3.3603125 44.7734375 2.515625 45.171875 C0.89914063 45.95304687 0.89914063 45.95304687 -0.75 46.75 C-1.81734375 47.26046875 -2.8846875 47.7709375 -3.984375 48.296875 C-6.8735255 49.9285714 -8.71760386 51.63535535 -11 54 C-11.66 54 -12.32 54 -13 54 C-13.2475 54.61875 -13.495 55.2375 -13.75 55.875 C-15.20628639 58.35068687 -16.37812506 58.95125002 -19 60 C-19.495 58.515 -19.495 58.515 -20 57 C-20.66 56.67 -21.32 56.34 -22 56 C-21.01 54.68 -20.02 53.36 -19 52 C-19.763125 52.495 -20.52625 52.99 -21.3125 53.5 C-24 55 -24 55 -27 55 C-25.71034824 53.62437146 -24.37310707 52.29233607 -23 51 C-22.34 51 -21.68 51 -21 51 C-21 50.34 -21 49.68 -21 49 C-18.8125 47.4921875 -18.8125 47.4921875 -16 45.875 C-15.071875 45.33617187 -14.14375 44.79734375 -13.1875 44.2421875 C-12.465625 43.83226562 -11.74375 43.42234375 -11 43 C-11.59911562 39.44593097 -12.55333762 36.46567654 -14.06640625 33.19921875 C-14.46923828 32.30396484 -14.87207031 31.40871094 -15.28710938 30.48632812 C-16.13362677 28.62865673 -16.98774032 26.77442707 -17.84960938 24.92382812 C-20.36385638 19.29401341 -21.62561989 15.17369961 -21 9 C-18.83983247 4.13962306 -16.01298253 1.91499206 -11.25 -0.25 C-7.11243313 -1.20482312 -4.16979959 -0.71893096 0 0 Z " fill="#D0D0D0" transform="translate(198,109)"/>
<path d="M0 0 C0 0.33 0 0.66 0 1 C-0.76183594 1.03480469 -1.52367187 1.06960937 -2.30859375 1.10546875 C-5.26140206 1.7641226 -5.26140206 1.7641226 -6.66015625 4.73828125 C-7.12292969 5.91777344 -7.58570313 7.09726563 -8.0625 8.3125 C-8.31435059 8.94043457 -8.56620117 9.56836914 -8.82568359 10.21533203 C-10.78008903 15.16940639 -12.43635671 20.21647943 -14.0546875 25.2890625 C-15.3724704 29.06815892 -17.10432979 32.47946961 -19 36 C-24.3503559 35.42978066 -29.67787852 34.79265639 -35 34 C-33.515 33.505 -33.515 33.505 -32 33 C-31.10992038 31.02347374 -31.10992038 31.02347374 -30.5625 28.58984375 C-29.05712078 23.08482092 -27.11953376 17.85735031 -25 12.5625 C-24.48566406 11.23702148 -24.48566406 11.23702148 -23.9609375 9.88476562 C-23.62320312 9.03720703 -23.28546875 8.18964844 -22.9375 7.31640625 C-22.63714844 6.55787354 -22.33679688 5.79934082 -22.02734375 5.01782227 C-20.2748295 1.57568105 -18.53230163 0.23288196 -15 -1.3125 C-9.94745015 -2.64898093 -4.97174781 -1.16876531 0 0 Z " fill="#D3D3D3" transform="translate(316,110)"/>
<path d="M0 0 C0.33 0 0.66 0 1 0 C1.16262928 2.73156959 1.28110686 5.45342122 1.375 8.1875 C1.45041016 9.34088867 1.45041016 9.34088867 1.52734375 10.51757812 C1.6424563 14.98778225 1.51355175 16.45105685 -1.6640625 19.84765625 C-4.65730663 21.77889456 -7.58175444 23.62306309 -10.75 25.25 C-11.69359375 25.75015625 -12.6371875 26.2503125 -13.609375 26.765625 C-17 28 -17 28 -27 29 C-27 22.07 -27 15.14 -27 8 C-18.09 8 -9.18 8 0 8 C0 5.36 0 2.72 0 0 Z " fill="#F7F7F7" transform="translate(277,322)"/>
<path d="M0 0 C12.21 0 24.42 0 37 0 C37.495 1.98 37.495 1.98 38 4 C30.91286983 10.64418453 22.8329249 10.38162066 13.58203125 10.26171875 C8.25538023 9.87253051 3.88450981 8.88450981 0 5 C0 3.35 0 1.7 0 0 Z " fill="#2F3745" transform="translate(233,273)"/>
<path d="M0 0 C2.5625 0.3125 2.5625 0.3125 4.18359375 1.34375 C6.30957459 4.37914474 6.17779226 7.54284353 6.1875 11.125 C6.19201172 11.84751953 6.19652344 12.57003906 6.20117188 13.31445312 C6.09547268 16.62736792 5.83034529 18.90540182 3.9921875 21.69921875 C2.24296263 23.1616274 0.60701883 24.31110302 -1.4375 25.3125 C-2.70950971 24.20968873 -3.98005853 23.10519231 -5.25 22 C-5.95769531 21.38511719 -6.66539062 20.77023438 -7.39453125 20.13671875 C-8.06871094 19.53472656 -8.74289062 18.93273437 -9.4375 18.3125 C-10.03949219 17.82394531 -10.64148438 17.33539063 -11.26171875 16.83203125 C-12.4375 15.3125 -12.4375 15.3125 -12.33984375 13.4140625 C-11.22593454 10.81976314 -9.76899093 8.88678602 -8 6.6875 C-7.38253906 5.91148437 -6.76507813 5.13546875 -6.12890625 4.3359375 C-2.80507776 0.35962535 -2.80507776 0.35962535 0 0 Z " fill="#2F68AC" transform="translate(295.4375,219.6875)"/>
<path d="M0 0 C2.625 0.25 2.625 0.25 4.25390625 1.27734375 C6.36801369 4.31900831 6.19719937 7.48343395 6.1875 11.0625 C6.19040039 12.1462793 6.19040039 12.1462793 6.19335938 13.25195312 C6.06569799 17.49572695 5.70831245 20.2395791 2.625 23.25 C1.635 23.91 0.645 24.57 -0.375 25.25 C-3.70934242 23.8468277 -5.43026479 22.28010195 -7.5625 19.375 C-8.07167969 18.69695312 -8.58085937 18.01890625 -9.10546875 17.3203125 C-11.27443717 13.78322554 -11.27443717 13.78322554 -11.375 11.25 C-9.7578125 8.70703125 -9.7578125 8.70703125 -7.5 6.0625 C-6.76007813 5.18207031 -6.02015625 4.30164063 -5.2578125 3.39453125 C-2.5094671 0.26415443 -2.5094671 0.26415443 0 0 Z " fill="#3568A5" transform="translate(209.375,219.75)"/>
<path d="M0 0 C0.33 0 0.66 0 1 0 C1.15855469 1.03898438 1.31710937 2.07796875 1.48046875 3.1484375 C3.13459779 13.28986737 4.9591368 22.85256604 13 30 C13 30.66 13 31.32 13 32 C13.9075 32.268125 14.815 32.53625 15.75 32.8125 C18.71471963 33.89576294 20.6169754 34.98359457 23 37 C16 39 16 39 0 39 C0 26.13 0 13.26 0 0 Z " fill="#DCDCDC" transform="translate(347,240)"/>
<path d="M0 0 C0.33 0 0.66 0 1 0 C1.75890772 4.01206936 2.10480114 7.74198852 2.02172852 11.82177734 C1.99158409 13.50284073 1.99158409 13.50284073 1.96083069 15.21786499 C1.93379562 16.41182892 1.90676056 17.60579285 1.87890625 18.8359375 C1.85529526 20.07042633 1.83168427 21.30491516 1.80735779 22.57681274 C1.73094383 26.50966531 1.64682341 30.44230985 1.5625 34.375 C1.50863279 37.04555167 1.45651684 39.71613395 1.40429688 42.38671875 C1.2753588 48.92460715 1.14009746 55.46234172 1 62 C-1.24065298 60.24618714 -1.94547724 59.37582494 -2.36076355 56.51325989 C-2.35410172 55.52508774 -2.34743988 54.53691559 -2.34057617 53.51879883 C-2.34034958 52.39786331 -2.34012299 51.2769278 -2.33988953 50.12202454 C-2.32440567 48.91257675 -2.30892181 47.70312897 -2.29296875 46.45703125 C-2.28872391 45.21829758 -2.28447906 43.9795639 -2.28010559 42.70329285 C-2.26614733 39.41350999 -2.23920213 36.12416797 -2.20599365 32.83453369 C-2.17527933 29.47633254 -2.16159739 26.11806682 -2.14648438 22.75976562 C-2.11337359 16.17300426 -2.06314257 9.5865382 -2 3 C-1.34 3 -0.68 3 0 3 C0 2.01 0 1.02 0 0 Z " fill="#A3A3A3" transform="translate(128,210)"/>
<path d="M0 0 C0.78375 0.04125 1.5675 0.0825 2.375 0.125 C1.735625 0.41375 1.09625 0.7025 0.4375 1 C-1.77706079 1.95323451 -1.77706079 1.95323451 -2.625 4.125 C-2.8572646 6.83762116 -3.04436235 9.53273126 -3.1875 12.25 C-3.23068359 13.00410156 -3.27386719 13.75820312 -3.31835938 14.53515625 C-3.4244832 16.39821888 -3.52525001 18.26158524 -3.625 20.125 C-1.15 21.115 -1.15 21.115 1.375 22.125 C0.385 23.115 -0.605 24.105 -1.625 25.125 C-2.89700971 24.02218873 -4.16755853 22.91769231 -5.4375 21.8125 C-6.14519531 21.19761719 -6.85289062 20.58273438 -7.58203125 19.94921875 C-8.25621094 19.34722656 -8.93039062 18.74523437 -9.625 18.125 C-10.22699219 17.63644531 -10.82898438 17.14789063 -11.44921875 16.64453125 C-12.625 15.125 -12.625 15.125 -12.52734375 13.2265625 C-11.41343454 10.63226314 -9.95649093 8.69928602 -8.1875 6.5 C-7.57003906 5.72398437 -6.95257813 4.94796875 -6.31640625 4.1484375 C-2.96679033 0.14127573 -2.96679033 0.14127573 0 0 Z " fill="#82B9A3" transform="translate(295.625,219.875)"/>
<path d="M0 0 C-0.33 1.65 -0.66 3.3 -1 5 C-1.66 5 -2.32 5 -3 5 C-3.2475 6.03125 -3.495 7.0625 -3.75 8.125 C-4.84079063 12.00600143 -6.62933884 14.76009641 -9 18 C-11.42479736 14.36280395 -11.38662577 12.14296518 -11.625 7.8125 C-11.69976562 6.54019531 -11.77453125 5.26789063 -11.8515625 3.95703125 C-11.90054688 2.98121094 -11.94953125 2.00539062 -12 1 C-13.32 0.67 -14.64 0.34 -16 0 C-3.45945946 -1.72972973 -3.45945946 -1.72972973 0 0 Z " fill="#EDEDED" transform="translate(152,203)"/>
<path d="M0 0 C2.625 2.3125 2.625 2.3125 4 5 C3.75 7.3125 3.75 7.3125 3 9 C0.13275314 8.42655063 -0.8614515 8.1385485 -3 6 C-6.03344954 6.08885 -6.03344954 6.08885 -9 7 C-9.99 8.485 -9.99 8.485 -11 10 C-12.32 10 -13.64 10 -15 10 C-15.375 7.3125 -15.375 7.3125 -15 4 C-10.62072064 -1.27759308 -6.53246272 -2.26409219 0 0 Z " fill="#313742" transform="translate(256,247)"/>
<path d="M0 0 C1.2065625 0.0309375 1.2065625 0.0309375 2.4375 0.0625 C1.81875 0.31 1.2 0.5575 0.5625 0.8125 C-2.04016489 2.34347935 -2.48870105 3.26397089 -3.5625 6.0625 C-3.87829624 9.00884205 -3.87829624 9.00884205 -3.8125 12.125 C-3.81765625 13.16785156 -3.8228125 14.21070313 -3.828125 15.28515625 C-3.76322577 18.27378985 -3.76322577 18.27378985 -1.5625 21.0625 C-0.5725 21.7225 0.4175 22.3825 1.4375 23.0625 C-0.5425 24.0525 -0.5425 24.0525 -2.5625 25.0625 C-3.69912382 23.86509416 -4.82128166 22.65395019 -5.9375 21.4375 C-6.56398437 20.76460937 -7.19046875 20.09171875 -7.8359375 19.3984375 C-9.91213062 16.58947034 -10.95817786 14.51639955 -11.5625 11.0625 C-10.04296875 8.32421875 -10.04296875 8.32421875 -7.75 5.75 C-6.62658203 4.45642578 -6.62658203 4.45642578 -5.48046875 3.13671875 C-2.63956767 0.0643797 -2.63956767 0.0643797 0 0 Z " fill="#80B3A8" transform="translate(209.5625,219.9375)"/>
<path d="M0 0 C-1.33250791 3.5875213 -2.830717 6.8364623 -5 10 C-5.66 10 -6.32 10 -7 10 C-7 10.66 -7 11.32 -7 12 C-8.875 12.625 -8.875 12.625 -11 13 C-11.66 12.34 -12.32 11.68 -13 11 C-13 10.01 -13 9.02 -13 8 C-12.34 8 -11.68 8 -11 8 C-11 7.34 -11 6.68 -11 6 C-9.35546875 4.4921875 -9.35546875 4.4921875 -7.1875 2.875 C-6.47980469 2.33617187 -5.77210938 1.79734375 -5.04296875 1.2421875 C-3 0 -3 0 0 0 Z " fill="#CBCBCB" transform="translate(343,296)"/>
<path d="M0 0 C2.5 -0.3125 2.5 -0.3125 5 0 C7.54200295 2.54200295 7.28716913 4.24224383 7.32226562 7.71679688 C7.31904297 8.44962891 7.31582031 9.18246094 7.3125 9.9375 C7.32861328 10.66646484 7.34472656 11.39542969 7.36132812 12.14648438 C7.36620224 17.46414474 7.36620224 17.46414474 5.6171875 20.0234375 C4 21 4 21 1.8125 20.6875 C1.214375 20.460625 0.61625 20.23375 0 20 C0.66 19.67 1.32 19.34 2 19 C2.33 18.34 2.66 17.68 3 17 C3.33 17 3.66 17 4 17 C4 12.05 4 7.1 4 2 C3.01 1.67 2.02 1.34 1 1 C0.34 6.28 -0.32 11.56 -1 17 C-1.33 17 -1.66 17 -2 17 C-2.05398987 14.72942623 -2.09278742 12.45848712 -2.125 10.1875 C-2.14820313 8.92292969 -2.17140625 7.65835938 -2.1953125 6.35546875 C-2 3 -2 3 0 0 Z " fill="#3A6695" transform="translate(294,221)"/>
<path d="M0 0 C2 1.75 2 1.75 3 4 C2.6875 6.25 2.6875 6.25 2 8 C-0.86724686 7.42655063 -1.8614515 7.1385485 -4 5 C-6.31765729 4.28072705 -8.65095874 3.6090107 -11 3 C-7.50688546 -0.35338996 -4.73886985 -0.60312889 0 0 Z " fill="#2E333D" transform="translate(257,248)"/>
<path d="M0 0 C1.14077657 3.42232972 1.09815117 6.08673217 1.0625 9.6875 C1.05347656 10.86699219 1.04445312 12.04648438 1.03515625 13.26171875 C1.02355469 14.16535156 1.01195312 15.06898438 1 16 C-2.32128039 12.82193704 -4.34376114 10.6874204 -5 6 C-3.59931981 3.58314006 -2.00326756 2.00326756 0 0 Z " fill="#89BEA6" transform="translate(203,225)"/>
<path d="M0 0 C2.75 0.875 2.75 0.875 5 2 C1.74265359 5.25734641 -1.47910541 4.98724548 -5.98828125 5.09765625 C-7.42972011 5.09107434 -8.87114338 5.07924498 -10.3125 5.0625 C-11.05306641 5.05798828 -11.79363281 5.05347656 -12.55664062 5.04882812 C-14.37112899 5.03712175 -16.18557534 5.01918898 -18 5 C-18 4.34 -18 3.68 -18 3 C-17.03578125 2.95101563 -16.0715625 2.90203125 -15.078125 2.8515625 C-13.81484375 2.77679688 -12.5515625 2.70203125 -11.25 2.625 C-9.99703125 2.55539062 -8.7440625 2.48578125 -7.453125 2.4140625 C-4.32084461 2.03847232 -2.70779346 1.42774564 0 0 Z " fill="#A9A9A9" transform="translate(365,274)"/>
<path d="M0 0 C-0.33 1.65 -0.66 3.3 -1 5 C-1.66 5 -2.32 5 -3 5 C-3 4.34 -3 3.68 -3 3 C-4.05960938 3.02320313 -5.11921875 3.04640625 -6.2109375 3.0703125 C-7.5989513 3.08906944 -8.9869727 3.10726972 -10.375 3.125 C-11.42300781 3.15013672 -11.42300781 3.15013672 -12.4921875 3.17578125 C-14.32897486 3.19344267 -16.16601963 3.10303261 -18 3 C-18.66 2.34 -19.32 1.68 -20 1 C-17.22922802 0.83225597 -14.45839073 0.66576064 -11.6875 0.5 C-10.90181641 0.45230469 -10.11613281 0.40460938 -9.30664062 0.35546875 C-8.54931641 0.31035156 -7.79199219 0.26523437 -7.01171875 0.21875 C-6.31522217 0.17685547 -5.61872559 0.13496094 -4.90112305 0.09179688 C-3.26903034 0.01299029 -1.63399421 0 0 0 Z " fill="#AEAEAE" transform="translate(155,276)"/>
<path d="M0 0 C0.66 0 1.32 0 2 0 C2 4.29 2 8.58 2 13 C3.65 13.33 5.3 13.66 7 14 C7 14.66 7 15.32 7 16 C4.625 15.6875 4.625 15.6875 2 15 C-0.35119399 11.47320901 -0.21443452 9.97120515 -0.125 5.8125 C-0.10695312 4.72582031 -0.08890625 3.63914063 -0.0703125 2.51953125 C-0.04710937 1.68808594 -0.02390625 0.85664063 0 0 Z " fill="#3B7196" transform="translate(205,226)"/>
<path d="M0 0 C-2.2903935 1.27244083 -4.00765948 2.00109421 -6.625 2.375 C-9.14184703 2.74176566 -9.14184703 2.74176566 -10.125 4.875 C-10.41375 5.57625 -10.7025 6.2775 -11 7 C-12.625 8.75 -12.625 8.75 -14 10 C-14.33 9.01 -14.66 8.02 -15 7 C-15.66 6.67 -16.32 6.34 -17 6 C-15.11076602 4.98758753 -13.21330056 3.99052575 -11.3125 3 C-10.25675781 2.443125 -9.20101562 1.88625 -8.11328125 1.3125 C-5.07773738 0.0327726 -3.23973174 -0.28851043 0 0 Z " fill="#848484" transform="translate(201,339)"/>
<path d="M0 0 C1.98 0.495 1.98 0.495 4 1 C4.2498764 3.5619857 4.47541116 6.12234131 4.6875 8.6875 C4.76033203 9.40873047 4.83316406 10.12996094 4.90820312 10.87304688 C5.1798979 14.37311488 5.09783454 16.77152235 3.70703125 20.01953125 C3.14371094 20.67308594 2.58039063 21.32664063 2 22 C1.01 22 0.02 22 -1 22 C-0.51144531 21.67 -0.02289063 21.34 0.48046875 21 C2.81462548 17.92779371 2.39472479 14.69682651 2.3125 11 C2.31733398 9.91332031 2.31733398 9.91332031 2.32226562 8.8046875 C2.28385299 5.0192971 2.14469404 3.21704106 0 0 Z " fill="#E1F4FA" transform="translate(298,220)"/>
<path d="M0 0 C0.33 0 0.66 0 1 0 C1.08086376 2.93804996 1.1404283 5.87388075 1.1875 8.8125 C1.21263672 9.64587891 1.23777344 10.47925781 1.26367188 11.33789062 C1.27333984 12.14033203 1.28300781 12.94277344 1.29296875 13.76953125 C1.3086792 14.50792236 1.32438965 15.24631348 1.34057617 16.00708008 C0.90385654 18.56259429 -0.05065607 19.34923359 -2 21 C-2.66 21.66 -3.32 22.32 -4 23 C-4.66 23 -5.32 23 -6 23 C-4.30849948 19.22665268 -4.30849948 19.22665268 -2.46875 17.875 C-0.12810731 14.8869455 -0.42415831 11.46532198 -0.3125 7.8125 C-0.27833984 7.06291016 -0.24417969 6.31332031 -0.20898438 5.54101562 C-0.12665706 3.69453162 -0.06164719 1.84729006 0 0 Z " fill="#ECFCFB" transform="translate(215,223)"/>
<path d="M0 0 C-1.1858237 3.37503669 -2.27573689 5.64722731 -5 8 C-5.66 6.35 -6.32 4.7 -7 3 C-3.375 0 -3.375 0 0 0 Z " fill="#BDBDBD" transform="translate(343,296)"/>
<path d="M0 0 C-1 3 -1 3 -4 5 C-7.6875 4.125 -7.6875 4.125 -11 3 C-7.48550811 -0.37391222 -4.73940561 -0.27342725 0 0 Z " fill="#202832" transform="translate(257,248)"/>
<path d="M0 0 C0.66 0 1.32 0 2 0 C1.67 2.31 1.34 4.62 1 7 C0.34 7 -0.32 7 -1 7 C-2.62514468 8.45833358 -2.62514468 8.45833358 -4 10 C-4.66 9.67 -5.32 9.34 -6 9 C-4.16749123 5.8585564 -2.36301977 2.77397973 0 0 Z " fill="#E4E4E4" transform="translate(299,111)"/>
<path d="M0 0 C-0.9590625 0.433125 -0.9590625 0.433125 -1.9375 0.875 C-4.15206079 1.82823451 -4.15206079 1.82823451 -5 4 C-5.2322646 6.71262116 -5.41936235 9.40773126 -5.5625 12.125 C-5.60568359 12.87910156 -5.64886719 13.63320312 -5.69335938 14.41015625 C-5.7994832 16.27321888 -5.90025001 18.13658524 -6 20 C-6.33 20 -6.66 20 -7 20 C-7.24858198 17.22965863 -7.47452879 14.46060931 -7.6875 11.6875 C-7.76033203 10.90181641 -7.83316406 10.11613281 -7.90820312 9.30664062 C-7.96298828 8.54931641 -8.01777344 7.79199219 -8.07421875 7.01171875 C-8.13182373 6.31522217 -8.18942871 5.61872559 -8.2487793 4.90112305 C-8 3 -8 3 -6.66333008 1.26098633 C-4.39955648 -0.45520194 -2.76670431 -0.22432738 0 0 Z " fill="#84BABB" transform="translate(298,220)"/>
<path d="M0 0 C1.32 0.33 2.64 0.66 4 1 C4 2.32 4 3.64 4 5 C2.35 5.33 0.7 5.66 -1 6 C-1.66 5.01 -2.32 4.02 -3 3 C-2.34 3 -1.68 3 -1 3 C-0.67 2.01 -0.34 1.02 0 0 Z " fill="#E2E2E2" transform="translate(315,313)"/>
<path d="M0 0 C0 0.99 0 1.98 0 3 C-1.64453125 4.38671875 -1.64453125 4.38671875 -3.8125 5.6875 C-4.52019531 6.12449219 -5.22789062 6.56148437 -5.95703125 7.01171875 C-8 8 -8 8 -11 8 C-9.71034824 6.62437146 -8.37310707 5.29233607 -7 4 C-6.34 4 -5.68 4 -5 4 C-5 3.34 -5 2.68 -5 2 C-2 0 -2 0 0 0 Z " fill="#8C8C8C" transform="translate(182,156)"/>
<path d="M0 0 C0.66 0.33 1.32 0.66 2 1 C2 1.99 2 2.98 2 4 C3.32 4.66 4.64 5.32 6 6 C4 7 4 7 1.4375 6.25 C-1 5 -1 5 -2 2 C-1.34 1.34 -0.68 0.68 0 0 Z " fill="#C2C2C2" transform="translate(178,313)"/>
<path d="M0 0 C-0.62390625 0.23460937 -1.2478125 0.46921875 -1.890625 0.7109375 C-4.60255941 2.36823075 -4.88975997 3.6141599 -5.75 6.625 C-5.99234375 7.44226563 -6.2346875 8.25953125 -6.484375 9.1015625 C-6.65453125 9.72804687 -6.8246875 10.35453125 -7 11 C-9.0234375 7.2578125 -9.0234375 7.2578125 -8.8125 4.9375 C-6.91021435 0.40128038 -4.80956747 -0.38996493 0 0 Z " fill="#7CB3B5" transform="translate(212,220)"/>
<path d="M0 0 C0.66 0 1.32 0 2 0 C1.34 5.28 0.68 10.56 0 16 C-0.33 16 -0.66 16 -1 16 C-1.02692484 13.70839681 -1.04636124 11.41670454 -1.0625 9.125 C-1.07410156 7.84882813 -1.08570313 6.57265625 -1.09765625 5.2578125 C-1 2 -1 2 0 0 Z " fill="#316E98" transform="translate(293,222)"/>
<path d="M0 0 C1.134375 0.020625 2.26875 0.04125 3.4375 0.0625 C3.1075 0.7225 2.7775 1.3825 2.4375 2.0625 C0.7875 1.7325 -0.8625 1.4025 -2.5625 1.0625 C-2.8925 2.0525 -3.2225 3.0425 -3.5625 4.0625 C-6.625 5.25 -6.625 5.25 -9.5625 6.0625 C-3.5625 0.0625 -3.5625 0.0625 0 0 Z " fill="#CFEFE2" transform="translate(203.5625,211.9375)"/>
<path d="M0 0 C3 1 3 1 3.94921875 2.84765625 C4.19285156 3.57855469 4.43648437 4.30945313 4.6875 5.0625 C4.93886719 5.79597656 5.19023437 6.52945312 5.44921875 7.28515625 C5.63097656 7.85105469 5.81273437 8.41695313 6 9 C5.01 9 4.02 9 3 9 C2.01 6.03 1.02 3.06 0 0 Z " fill="#929292" transform="translate(155,291)"/>
<path d="M0 0 C0.99 0.66 1.98 1.32 3 2 C1.35 3.65 -0.3 5.3 -2 7 C-2.66 6.67 -3.32 6.34 -4 6 C-2.84826645 3.53199953 -1.95216435 1.95216435 0 0 Z " fill="#EDFCF4" transform="translate(192,215)"/>
<path d="M0 0 C0.66 0.33 1.32 0.66 2 1 C1.3503125 1.8353125 1.3503125 1.8353125 0.6875 2.6875 C-1.03504767 5.04802829 -2.52833152 7.47713975 -4 10 C-4.33 9.01 -4.66 8.02 -5 7 C-2 2 -2 2 0 0 Z " fill="#5A5A5A" transform="translate(298,110)"/>
<path d="M0 0 C-0.66 0.66 -1.32 1.32 -2 2 C-5.0625 1.75 -5.0625 1.75 -8 1 C-8.33 0.34 -8.66 -0.32 -9 -1 C-5.38055101 -2.34053666 -3.42632833 -1.61798838 0 0 Z " fill="#B3B3B3" transform="translate(370,276)"/>
<path d="M0 0 C1.2077558 3.62326739 0.54311128 4.64146369 -1 8 C-1.99 7.67 -2.98 7.34 -4 7 C-2.92598892 4.08482708 -2.22189824 2.22189824 0 0 Z " fill="#80B7A0" transform="translate(203,225)"/>
<path d="M0 0 C2 2 2 2 2 6 C1.34 6 0.68 6 0 6 C0 7.65 0 9.3 0 11 C-0.66 10.67 -1.32 10.34 -2 10 C-1.34 6.7 -0.68 3.4 0 0 Z " fill="#787878" transform="translate(154,192)"/>
<path d="M0 0 C1.10348268 3.31044803 0.99444068 5.65506316 0 9 C-0.99 9.495 -0.99 9.495 -2 10 C-1.54177532 6.53058454 -1.10868317 3.32604951 0 0 Z " fill="#919191" transform="translate(166,366)"/>
</svg>
